<?xml version="1.0" encoding="utf-8"?>
<svg viewBox="0 0 500 500" xmlns="http://www.w3.org/2000/svg">
  <ellipse style="stroke: rgb(0, 0, 0); stroke-width: 31px; fill: rgba(255, 255, 255, 0);" cx="249.805" cy="249.889" rx="232.267" ry="232.267"/>
  <path d="M 242.755 178.33 C 242.755 205.136 221.025 226.866 194.219 226.866 C 167.413 226.866 145.683 205.136 145.683 178.33 C 145.683 151.524 167.413 129.794 194.219 129.794 C 221.025 129.794 242.755 151.524 242.755 178.33 Z M 213.209 148.717 C 207.252 148.717 202.424 153.546 202.424 159.503 C 202.424 165.46 207.252 170.288 213.209 170.288 C 219.166 170.288 223.995 165.46 223.995 159.503 C 223.995 153.546 219.166 148.717 213.209 148.717 Z" style="stroke: rgba(0, 0, 0, 0);"/>
  <path d="M 357.433 178.681 C 357.433 205.488 335.703 227.217 308.897 227.217 C 282.091 227.217 260.361 205.488 260.361 178.681 C 260.361 151.875 282.091 130.145 308.897 130.145 C 335.703 130.145 357.433 151.875 357.433 178.681 Z M 327.888 149.069 C 321.931 149.069 317.102 153.897 317.102 159.854 C 317.102 165.811 321.931 170.64 327.888 170.64 C 333.845 170.64 338.673 165.811 338.673 159.854 C 338.673 153.897 333.845 149.069 327.888 149.069 Z" style="stroke: rgba(0, 0, 0, 0);"/>
  <path style="stroke: rgb(0, 0, 0); stroke-width: 31px; fill: rgba(255, 255, 255, 0);" d="M 178.867 452.869 C 280.701 452.869 344.349 342.629 293.432 254.437 C 288.976 246.721 283.756 239.476 277.844 232.813" transform="matrix(-0.406737, -0.913545, 0.913545, -0.406737, 31.606019, 706.207141)"/>
</svg>